<?xml version="1.0"?>
<svg xmlns="http://www.w3.org/2000/svg" height="512px" viewBox="0 -2 480 480" width="512px" class=""><g><path d="m11.375 236.191406 152 107.664063c.136719.097656.296875.136719.441406.226562.144532.085938.320313.253907.511719.359375.191406.101563.28125 0 .425781.101563 2.039063 1.046875 4.453125 1.046875 6.492188 0 .136718-.0625.296875-.039063.425781-.101563.128906-.066406.335937-.25.511719-.359375.175781-.113281.304687-.128906.441406-.226562l152-107.664063c2.117188-1.5 3.375-3.933594 3.375-6.527344v-152c.003906-2.859374-1.523438-5.503906-4-6.933593-.222656-.105469-.449219-.199219-.679688-.28125v-.054688l-152-69.664062c-2.117187-.972657-4.554687-.972657-6.671874 0l-152 69.664062v.054688c-.230469.082031-.457032.175781-.679688.28125-2.476562 1.429687-4.003906 4.074219-4 6.933593v152c.007812 2.601563 1.277344 5.035157 3.40625 6.527344zm12.625-144.597656 136 79.328125v150.933594l-136-96.335938zm288 133.925781-136 96.335938v-150.933594l136-79.328125zm-144-208.71875 134.65625 61.710938-134.65625 78.554687-134.65625-78.554687zm0 0" data-original="#000000" class="active-path" data-old_color="#e6e265" fill="#e6e265"/><path d="m232 420.664062h16v16h-16zm0 0" data-original="#000000" class="active-path" data-old_color="#e6e265" fill="#e6e265"/><path d="m208 420.664062h16v16h-16zm0 0" data-original="#000000" class="active-path" data-old_color="#e6e265" fill="#e6e265"/><path d="m232 396.664062h16v16h-16zm0 0" data-original="#000000" class="active-path" data-old_color="#e6e265" fill="#e6e265"/><path d="m256 420.664062h16v16h-16zm0 0" data-original="#000000" class="active-path" data-old_color="#e6e265" fill="#e6e265"/><path d="m357.65625 210.320312 2.34375-2.34375v57.375l-32 32v-4.6875c0-4.417968-3.582031-8-8-8s-8 3.582032-8 8v24c0 .105469.054688.191407.054688.296876.023437.949218.210937 1.882812.554687 2.769531 0 .070312.085937.117187.117187.191406.355469.777344.835938 1.496094 1.425782 2.117187.675781.667969 1.441406 1.234376 2.28125 1.683594.257812.132813.527344.253906.796875.359375.882812.355469 1.820312.554688 2.769531.582031h24c4.417969 0 8-3.582031 8-8 0-4.417968-3.582031-8-8-8h-4.6875l32-32h49.375l-2.34375 2.34375c-2.078125 2.007813-2.914062 4.984376-2.179688 7.78125.730469 2.796876 2.914063 4.980469 5.710938 5.714844 2.796875.730469 5.773438-.101562 7.78125-2.183594l16-16c.675781-.695312 1.21875-1.507812 1.601562-2.398437.109376-.261719.203126-.527344.277344-.800781.214844-.636719.34375-1.296875.386719-1.96875.027344-.265625.046875-.53125.046875-.800782-.027344-.859374-.195312-1.707031-.496094-2.511718 0-.070313 0-.152344-.046875-.214844-.390625-.875-.933593-1.671875-1.601562-2.351562-.0625-.074219-.089844-.167969-.160157-.242188l-16-16c-3.140624-3.03125-8.128906-2.988281-11.214843.097656-3.085938 3.085938-3.128907 8.078125-.097657 11.214844l2.34375 2.34375h-44.695312v-52.710938l2.34375 2.34375c3.140625 3.03125 8.128906 2.988282 11.214844-.097656 3.085937-3.085937 3.128906-8.074218.097656-11.214844l-16-16c-.070312-.070312-.167969-.09375-.242188-.160156-.679687-.667968-1.476562-1.210937-2.351562-1.597656-.0625 0-.132812 0-.199219-.050781-.820312-.304688-1.6875-.476563-2.566406-.503907-.238281-.011718-.476563-.011718-.710937 0-.71875.042969-1.425782.179688-2.105469.410157-.242188.070312-.476563.15625-.703125.253906-.894532.382813-1.707032.925781-2.402344 1.601563l-16 16c-3.03125 3.140624-2.988281 8.128906.097656 11.214843 3.085938 3.085938 8.078125 3.128907 11.214844.097657zm0 0" data-original="#000000" class="active-path" data-old_color="#e6e265" fill="#e6e265"/><path d="m240 364.664062c-83.007812 0-240 11.703126-240 56 0 44.296876 156.992188 56 240 56s240-11.703124 240-56c0-44.296874-156.992188-56-240-56zm0 96c-144.9375 0-224-26.398437-224-40 0-13.597656 79.0625-40 224-40s224 26.402344 224 40c0 13.601563-79.0625 40-224 40zm0 0" data-original="#000000" class="active-path" data-old_color="#e6e265" fill="#e6e265"/><path d="m176 84.664062h16v16h-16zm0 0" data-original="#000000" class="active-path" data-old_color="#e6e265" fill="#e6e265"/><path d="m152 84.664062h16v16h-16zm0 0" data-original="#000000" class="active-path" data-old_color="#e6e265" fill="#e6e265"/><path d="m176 60.664062h16v16h-16zm0 0" data-original="#000000" class="active-path" data-old_color="#e6e265" fill="#e6e265"/><path d="m256 196.664062h16v16h-16zm0 0" data-original="#000000" class="active-path" data-old_color="#e6e265" fill="#e6e265"/><path d="m232 196.664062h16v16h-16zm0 0" data-original="#000000" class="active-path" data-old_color="#e6e265" fill="#e6e265"/><path d="m256 172.664062h16v16h-16zm0 0" data-original="#000000" class="active-path" data-old_color="#e6e265" fill="#e6e265"/><path d="m96 196.664062h16v16h-16zm0 0" data-original="#000000" class="active-path" data-old_color="#e6e265" fill="#e6e265"/><path d="m72 196.664062h16v16h-16zm0 0" data-original="#000000" class="active-path" data-old_color="#e6e265" fill="#e6e265"/><path d="m96 172.664062h16v16h-16zm0 0" data-original="#000000" class="active-path" data-old_color="#e6e265" fill="#e6e265"/></g> </svg>
