<svg xmlns="http://www.w3.org/2000/svg" viewBox="0 0 1367 769.5"><defs><style>.cls-1{fill:#25378e;stroke:#25378e;}.cls-1,.cls-2,.cls-3,.cls-4{stroke-miterlimit:10;}.cls-2{fill:#0d6ab1;stroke:#0d6ab1;}.cls-3{fill:none;stroke:#000;}.cls-4{fill:#e6e265;stroke:#e6e265;}</style></defs><title>banner</title><g id="图层_2" data-name="图层 2"><path class="cls-1" d="M0-.5H1187.23c-12.4,28.74-22.49,60.36-25.93,100.28-8.7,59.07-19.4,114-39.57,149.4-37.9,70.85-84.61,130.62-146,171.91-69.6,47.07-159.66,64.47-192.41-2-13.48-45.79-44.14-69.81-99.62-62.42-47.06,7.89-87.2,31.88-121.45,69.58-26.46,27-59.63,54.84-103.71,83.91-119,72.29-251.09,128.94-401.2,115.63l51.86-27.63c55.22-22.05,100.46-49.34,133.73-82.89,32.9-34,45-71.63,6.82-100.28L1.36,263.51Z" transform="translate(0.5 1)"/><path class="cls-1" d="M1.36,457.94,60,446.68l87.34,53.21c-30.89-5.07-63.88,1.39-98.25,15.35L1.36,530.59Z" transform="translate(0.5 1)"/><path class="cls-1" d="M1292.31-.5h72.33V172.44c-39,24-75.05,39.91-117.36,51.17-26.5,6.35-51.72,3.34-73.69-23.54-8-9.95-5.46-26.61,17.74-60.37l17.36-15.85,14-12.81c18.56-16.43,35-32.1,46.4-46C1288.13,50,1296.59,28.59,1292.31-.5Z" transform="translate(0.5 1)"/></g><g id="图层_3" data-name="图层 3"><path class="cls-2" d="M60,446.68c87.12-31.1,165.5-53.39,195.14-26.61,62.77,64.47-62.77,144.29-143.29,177,54.59-29.68,75.05-80.84,35.48-97.21Z" transform="translate(0.5 1)"/><path class="cls-3" d="M802.41,447.71" transform="translate(0.5 1)"/><path class="cls-4" d="M938.87,442.59A357.6,357.6,0,0,0,1034.39,372c49.29-47.52,84.52-113.19,113.26-187.26l28.66,22.51c17.61,14.39,36.79,20.45,57.31,19.44,30.53-2.66,63.89-17.16,98.25-35.82l32.75-18.42L1366,768H1.36L0,655.44l57.31-29.68c114.92,6,228.39-16.87,339.79-80.84C440.5,524,482.71,495.79,524,462c31.39-29.68,88.7-95.17,158.3-104.38,31.39-2,66.87-1,86,29.68l25.93,49.12C821.51,474.31,882.94,467.93,938.87,442.59Z" transform="translate(0.5 1)"/></g></svg>