<?xml version="1.0"?>
<svg xmlns="http://www.w3.org/2000/svg" xmlns:xlink="http://www.w3.org/1999/xlink" version="1.1" id="Capa_1" x="0px" y="0px" viewBox="0 0 512 512" style="enable-background:new 0 0 512 512;" xml:space="preserve" width="512px" height="512px" class=""><g><path style="fill:#25378E" d="M506.329,261.671C506.329,399.045,395.17,512,256,512C117.191,512,5.671,399.386,5.671,261.671  C5.671,123.418,117.747,11.342,256,11.342C394.511,11.342,506.329,123.654,506.329,261.671z" data-original="#5AB9C3" class="" data-old_color="#25378e"/><path style="fill:#57565C;" d="M256.875,81.811c-2.26,0-4.408-0.99-5.877-2.71l-56.641-66.356c-2.77-3.245-2.385-8.123,0.86-10.892  c3.246-2.77,8.123-2.385,10.893,0.86l50.672,59.363l49.031-59.273c2.72-3.287,7.59-3.75,10.879-1.029  c3.287,2.721,3.748,7.591,1.028,10.879l-54.892,66.356c-1.455,1.759-3.612,2.784-5.894,2.802  C256.915,81.811,256.894,81.811,256.875,81.811z" data-original="#57565C"/><g>
	<path style="fill:#464646;" d="M106.527,394.71H65.775c-3.159,0-5.719-2.56-5.719-5.719v-60.517c0-3.159,2.56-5.719,5.719-5.719   h40.752c3.159,0,5.719,2.56,5.719,5.719v60.517C112.244,392.15,109.684,394.71,106.527,394.71z" data-original="#464646" class=""/>
	<path style="fill:#464646;" d="M441.876,394.71h-40.752c-3.159,0-5.719-2.56-5.719-5.719v-60.517c0-3.159,2.56-5.719,5.719-5.719   h40.752c3.159,0,5.719,2.56,5.719,5.719v60.517C447.594,392.15,445.034,394.71,441.876,394.71z" data-original="#464646" class=""/>
</g><path style="fill:#2D2D2D;" d="M453.92,340.423H58.081c-12.362,0-22.384-10.022-22.384-22.384V96.984  c0-12.362,10.022-22.384,22.384-22.384h395.837c12.362,0,22.384,10.022,22.384,22.384v221.054  C476.304,330.401,466.282,340.423,453.92,340.423z" data-original="#2D2D2D" class=""/><path style="fill:#5A5A5A;" d="M444.517,122.95v169.129c0,6.583-5.336,11.919-11.919,11.919H79.403  c-6.583,0-11.919-5.336-11.919-11.919V122.95c0-6.583,5.336-11.93,11.919-11.93h353.195  C439.181,111.02,444.517,116.367,444.517,122.95z" data-original="#5A5A5A" class=""/><path style="fill:#6E6E6E;" d="M444.517,122.95v169.129c0,6.583-5.336,11.919-11.919,11.919H123.969  c-6.583,0-11.93-5.336-11.93-11.919V122.95c0-6.583,5.347-11.93,11.93-11.93h308.628C439.181,111.02,444.517,116.367,444.517,122.95  z" data-original="#6E6E6E" class=""/><circle style="fill:#CD2D23;" cx="407.961" cy="322.701" r="5.31" data-original="#CD2D23"/><circle style="fill:#3A9BF5;" cx="430.09" cy="322.701" r="5.31" data-original="#3A9BF5" class=""/><path style="fill:#F2C230;" d="M370.59,484.329c-31.236,16.112-66.355,25.848-103.7,27.434h-21.748  c-37.324-1.587-72.465-11.322-103.731-27.445c2.349-42.228,34.728-76.441,76.132-81.633c3.606-0.453,7.263-0.69,10.982-0.69h54.961  C330,401.995,368.035,438.433,370.59,484.329z" data-original="#F2C230"/><path style="fill:#E6E265" d="M370.59,484.329c-10.292,5.306-21.006,9.921-32.081,13.774h-137.81  c-6.222,0-11.847-2.514-15.906-6.583c-4.069-4.069-6.583-9.694-6.583-15.917c0-30.484,15.628-57.321,39.333-72.918  c3.606-0.453,7.263-0.69,10.982-0.69h54.961C330,401.995,368.035,438.433,370.59,484.329z" data-original="#FFEB50" class="active-path" data-old_color="#e6e265"/><path style="fill:#100C09" d="M372.953,439.796c-36.641,21.139-70.536,31.04-100.757,34.003c-0.012,0-0.012,0-0.012,0  c-63.972,6.275-111.477-18.465-133.676-33.365c-6.192-4.155-5.963-13.201,0.301-17.236c33.846-21.79,32.485-68.44,32.485-68.44  v-84.846c0-65.477,57.335-92.856,105.611-82.473c35.099,7.552,65.429,35.088,65.429,82.473v84.846c0,0-0.144,45.326,31.137,67.609  C379.674,426.788,379.553,435.99,372.953,439.796z" data-original="#FF7D0A" class="" data-old_color="#FF7D0A"/><path style="fill:#0A0908" d="M372.953,439.796c-36.641,21.139-70.536,31.04-100.757,34.003c-0.012,0-0.012,0-0.012,0  c-43.531-4.336-75.968-21.815-93.181-33.365c-6.192-4.155-5.963-13.201,0.313-17.236c33.835-21.79,32.485-68.44,32.485-68.44  v-84.846c0-47.47,30.137-74.921,65.104-82.473c35.099,7.552,65.429,35.088,65.429,82.473v84.846c0,0-0.144,45.326,31.137,67.609  C379.674,426.788,379.553,435.99,372.953,439.796z" data-original="#FF8C05" class="" data-old_color="#FF8C05"/></g> </svg>
